<?xml version="1.0" encoding="UTF-8"?>
<svg version="1.1" xmlns="http://www.w3.org/2000/svg" width="141" height="149">
<path d="M0 0 C0.66 0 1.32 0 2 0 C1.20629434 18.65208299 -9.9894713 32.32407243 -21.43261719 46.09423828 C-35.64890956 63.37965545 -43.66299136 79.29945324 -42 102 C-40.42421939 114.02070894 -34.76443169 125.69385204 -28.19140625 135.7734375 C-27.79824219 136.50820312 -27.40507813 137.24296875 -27 138 C-27.33 138.99 -27.66 139.98 -28 141 C-37.72795004 141.44292521 -46.56763926 140.40006666 -56 138 C-57.22074219 137.71769531 -58.44148438 137.43539062 -59.69921875 137.14453125 C-68.05996599 134.7009086 -68.05996599 134.7009086 -70.66015625 129.99609375 C-71.72090222 126.65417365 -72.45158853 123.46080875 -73 120 C-73.18433594 119.07832031 -73.36867187 118.15664062 -73.55859375 117.20703125 C-75.95984338 99.76078393 -74.44256968 80.7105909 -64 66 C-57.55618333 57.94008234 -50.57180069 51.78256396 -42 46 C-39.63611664 44.34692514 -37.28561766 42.67537436 -34.9375 41 C-34.34195313 40.57517334 -33.74640625 40.15034668 -33.1328125 39.71264648 C-27.93521995 35.98689422 -22.86539809 32.1550004 -18 28 C-17.23042969 27.36191406 -16.46085937 26.72382813 -15.66796875 26.06640625 C-7.99003481 19.14710973 -3.24828333 9.74484998 0 0 Z " fill="#1A1250" transform="translate(112,5)"/>
<path d="M0 0 C0.66 0 1.32 0 2 0 C1.49142178 9.66298609 -5.49555665 16.93763688 -11.94921875 23.48046875 C-21.09788417 31.0360247 -31.67387529 35.89953079 -42.38427734 40.79956055 C-60.26261859 49.01336804 -73.67309903 59.21059103 -81 78 C-85.06243572 90.04809596 -86.09465699 102.38408191 -87 115 C-99.71839882 102.75424438 -104.84107737 84.65563045 -105.25 67.3125 C-105.19668794 65.54050876 -105.11490906 63.76906502 -105 62 C-104.95488281 61.22914062 -104.90976563 60.45828125 -104.86328125 59.6640625 C-103.87374017 52.33888826 -99.1356739 47.97438827 -94 43 C-93.39542969 42.40960938 -92.79085937 41.81921875 -92.16796875 41.2109375 C-80.46346915 30.52064513 -65.86627713 27.3206891 -50.6875 25 C-24.45733788 21.23371837 -24.45733788 21.23371837 -3.59375 6.18359375 C-2.13192094 4.18074462 -1.02185917 2.25319947 0 0 Z " fill="#1A1250" transform="translate(107,3)"/>
<path d="M0 0 C0.66 0 1.32 0 2 0 C2.69334698 17.54553055 -0.48765667 32.00409588 -5.98095703 48.58203125 C-9.73113231 59.95715575 -11.33450375 72.8691307 -6 84 C-0.15625778 94.82174485 10.46693635 99.71975325 21 105 C19.57253876 109.56620641 17.02585414 112.51254226 13.6875 115.8125 C12.90584473 116.59318848 12.90584473 116.59318848 12.10839844 117.38964844 C6.66586641 122.63168315 0.60867012 126.37589058 -6 130 C-18.85443377 121.85642406 -26.0719601 109.45765473 -30 95 C-34.45988194 73.44390398 -24.9697438 55.71242592 -13.8828125 38.08203125 C-6.58684548 26.1390479 -2.06871171 13.82770456 0 0 Z " fill="#1A1250" transform="translate(117,8)"/>
</svg>
