<svg width="148.067" height="54.157" viewBox="0 0 148.067 54.157" xmlns="http://www.w3.org/2000/svg"><g id="svgGroup" stroke-linecap="round" fill-rule="nonzero" font-size="9pt" stroke="#000000" stroke-width=".5" fill="#000000" style="stroke:#000000;stroke-width:.5;fill:#000000"><path d="M 132.162 22.201 Q 136.662 22.201 140.262 24.188 Q 143.862 26.176 145.962 29.738 Q 148.062 33.301 148.062 38.101 Q 148.062 41.476 146.862 44.363 Q 145.662 47.251 143.487 49.463 Q 141.312 51.676 138.424 52.913 Q 135.537 54.151 132.162 54.151 Q 127.587 54.151 124.324 52.238 Q 121.062 50.326 118.887 47.101 L 120.162 46.126 Q 122.337 49.351 125.262 51.038 Q 128.187 52.726 131.712 52.726 Q 136.137 52.726 139.512 50.776 Q 142.887 48.826 144.762 45.413 Q 146.637 42.001 146.637 37.651 Q 146.637 33.526 144.687 30.413 Q 142.737 27.301 139.549 25.501 Q 136.362 23.701 132.612 23.701 L 126.162 23.701 L 142.137 2.251 L 122.187 2.251 L 122.187 0.751 L 143.937 0.751 L 143.937 2.251 L 128.937 22.201 L 132.162 22.201 Z M 24.687 3.751 Q 22.212 2.476 19.737 1.951 Q 17.262 1.426 14.862 1.426 Q 10.512 1.426 7.512 2.888 Q 4.512 4.351 2.974 7.313 Q 1.437 10.276 1.437 14.701 L 1.437 39.301 A 25.804 25.804 0 0 0 1.44 39.679 A 14.653 14.653 0 0 0 3.237 47.138 Q 5.037 50.101 8.187 51.376 Q 11.337 52.651 15.312 52.651 Q 16.812 52.651 18.649 52.388 Q 20.487 52.126 22.549 51.563 Q 24.612 51.001 26.712 50.176 L 27.162 51.526 Q 24.012 52.726 20.974 53.363 Q 17.937 54.001 15.012 54.001 Q 10.287 54.001 6.949 52.426 Q 3.612 50.851 1.812 47.663 Q 0.012 44.476 0.012 39.451 L 0.012 14.701 A 26.943 26.943 0 0 1 0.03 13.694 A 14.958 14.958 0 0 1 2.112 6.001 Q 4.212 2.776 7.549 1.388 Q 10.887 0.001 14.637 0.001 Q 17.712 0.001 20.374 0.601 Q 23.037 1.201 25.287 2.476 L 24.687 3.751 Z M 55.887 3.751 Q 53.412 2.476 50.937 1.951 Q 48.462 1.426 46.062 1.426 Q 41.712 1.426 38.712 2.888 Q 35.712 4.351 34.174 7.313 Q 32.637 10.276 32.637 14.701 L 32.637 39.301 A 25.804 25.804 0 0 0 32.64 39.679 A 14.653 14.653 0 0 0 34.437 47.138 Q 36.237 50.101 39.387 51.376 Q 42.537 52.651 46.512 52.651 Q 48.012 52.651 49.849 52.388 Q 51.687 52.126 53.749 51.563 Q 55.812 51.001 57.912 50.176 L 58.362 51.526 Q 55.212 52.726 52.174 53.363 Q 49.137 54.001 46.212 54.001 Q 41.487 54.001 38.149 52.426 Q 34.812 50.851 33.012 47.663 Q 31.212 44.476 31.212 39.451 L 31.212 14.701 A 26.943 26.943 0 0 1 31.23 13.694 A 14.958 14.958 0 0 1 33.312 6.001 Q 35.412 2.776 38.749 1.388 Q 42.087 0.001 45.837 0.001 Q 48.912 0.001 51.574 0.601 Q 54.237 1.201 56.487 2.476 L 55.887 3.751 Z M 76.662 53.251 L 75.312 53.251 L 75.312 2.251 L 60.987 2.251 L 60.987 0.751 L 91.212 0.751 L 91.212 2.251 L 76.662 2.251 L 76.662 53.251 Z M 90.237 22.201 L 114.237 22.201 L 114.237 23.701 L 90.237 23.701 L 90.237 22.201 Z"/></g></svg>