<svg width="262.357" height="54.379" viewBox="0 0 262.357 54.379" xmlns="http://www.w3.org/2000/svg"><g id="svgGroup" stroke-linecap="round" fill-rule="nonzero" font-size="9pt" stroke="#000000" stroke-width=".5" fill="#000000" style="stroke:#000000;stroke-width:.5;fill:#000000"><path d="M 30.525 4.277 Q 28.95 3.227 26.963 2.59 Q 24.975 1.952 22.95 1.615 Q 20.925 1.277 18.975 1.277 Q 16.5 1.277 13.913 1.877 Q 11.325 2.477 9.113 3.79 Q 6.9 5.102 5.55 7.165 Q 4.2 9.227 4.2 12.077 Q 4.2 14.927 5.513 16.915 Q 6.825 18.902 9.075 20.365 Q 11.325 21.827 14.138 22.915 Q 16.95 24.002 19.913 25.09 Q 22.875 26.177 25.688 27.452 Q 28.5 28.727 30.75 30.49 Q 33 32.252 34.313 34.727 Q 35.625 37.202 35.625 40.727 Q 35.625 44.327 34.088 46.877 Q 32.55 49.427 29.963 51.04 Q 27.375 52.652 24.3 53.402 Q 21.225 54.152 18.075 54.152 Q 14.625 54.152 11.213 53.29 Q 7.8 52.427 4.913 50.59 Q 2.025 48.752 0 45.827 L 0.975 45.077 Q 3 47.702 5.738 49.39 Q 8.475 51.077 11.625 51.902 Q 14.775 52.727 18 52.727 Q 20.85 52.727 23.738 52.09 Q 26.625 51.452 28.988 50.027 Q 31.35 48.602 32.775 46.277 Q 34.2 43.952 34.2 40.577 Q 34.2 37.352 32.888 35.065 Q 31.575 32.777 29.325 31.165 Q 27.075 29.552 24.263 28.315 Q 21.45 27.077 18.488 26.027 Q 15.525 24.977 12.713 23.777 Q 9.9 22.577 7.65 21.04 Q 5.4 19.502 4.088 17.327 Q 2.775 15.152 2.775 12.077 Q 2.775 8.777 4.275 6.49 Q 5.775 4.202 8.175 2.777 Q 10.575 1.352 13.5 0.677 Q 16.425 0.002 19.2 0.002 Q 21.3 0.002 23.325 0.34 Q 25.35 0.677 27.3 1.277 Q 29.25 1.877 31.05 2.852 L 30.525 4.277 Z M 261 27.302 Q 261 24.077 260.1 21.865 Q 259.2 19.652 257.438 18.34 Q 255.675 17.027 253.275 16.54 A 20.471 20.471 0 0 0 249.21 16.167 A 28.945 28.945 0 0 0 247.8 16.202 Q 245.625 16.277 243.488 16.765 Q 241.35 17.252 239.438 17.89 Q 237.525 18.527 236.1 19.202 L 236.1 53.252 L 234.675 53.252 L 234.675 15.677 L 236.1 15.677 L 236.1 17.777 Q 237.75 17.027 239.625 16.427 Q 241.5 15.827 243.45 15.452 Q 245.4 15.077 247.125 15.002 Q 249.075 14.852 251.213 15.002 Q 253.35 15.152 255.3 15.79 Q 257.25 16.427 258.863 17.777 Q 260.475 19.127 261.413 21.49 Q 262.35 23.852 262.35 27.377 L 262.35 53.252 L 261 53.252 L 261 27.302 Z M 166.05 18.677 Q 165 18.002 163.613 17.44 Q 162.225 16.877 160.613 16.54 Q 159 16.202 157.275 16.202 Q 155.475 16.202 153.638 16.615 Q 151.8 17.027 150.225 17.89 Q 148.65 18.752 147.713 20.215 Q 146.775 21.677 146.775 23.702 Q 146.775 26.102 148.05 27.715 Q 149.325 29.327 151.388 30.452 Q 153.45 31.577 155.925 32.477 Q 158.4 33.377 160.875 34.315 Q 163.35 35.252 165.413 36.527 Q 167.475 37.802 168.75 39.677 Q 170.025 41.552 170.025 44.327 Q 170.025 46.952 168.863 48.865 Q 167.7 50.777 165.788 51.977 Q 163.875 53.177 161.55 53.777 Q 159.225 54.377 156.9 54.377 Q 152.775 54.377 149.475 52.915 Q 146.175 51.452 143.55 48.152 L 144.525 47.177 Q 146.1 49.277 147.975 50.59 Q 149.85 51.902 152.063 52.502 Q 154.275 53.102 156.825 53.102 Q 159 53.102 161.1 52.577 Q 163.2 52.052 164.888 51.002 Q 166.575 49.952 167.625 48.34 Q 168.675 46.727 168.675 44.552 Q 168.675 41.927 167.4 40.202 Q 166.125 38.477 164.063 37.277 Q 162 36.077 159.525 35.177 Q 157.05 34.277 154.575 33.34 Q 152.1 32.402 150.038 31.202 Q 147.975 30.002 146.7 28.24 Q 145.425 26.477 145.425 23.852 Q 145.425 21.452 146.475 19.765 Q 147.525 18.077 149.288 16.99 Q 151.05 15.902 153.15 15.377 Q 155.25 14.852 157.35 14.852 Q 160.125 14.852 162.225 15.527 Q 164.325 16.202 165.563 16.84 A 55.514 55.514 0 0 1 165.582 16.85 A 5.975 5.975 0 0 1 166.8 17.552 L 166.05 18.677 Z M 42.825 43.277 Q 42.825 45.977 43.725 47.815 Q 44.625 49.652 46.2 50.702 Q 47.775 51.752 49.875 52.24 Q 51.975 52.727 54.375 52.727 Q 57.45 52.727 60.075 51.94 Q 62.7 51.152 65.925 49.352 L 66.525 50.627 Q 63.75 52.277 60.713 53.215 Q 57.675 54.152 54.525 54.152 Q 51.825 54.152 49.425 53.59 Q 47.025 53.027 45.225 51.752 Q 43.425 50.477 42.413 48.377 Q 41.4 46.277 41.4 43.202 L 41.4 27.827 Q 41.4 23.627 43.2 20.777 Q 45 17.927 48.15 16.465 Q 51.3 15.002 55.275 15.002 Q 59.25 15.002 62.213 16.39 Q 65.175 17.777 66.825 20.59 Q 68.475 23.402 68.475 27.602 L 68.475 34.727 L 42.825 36.002 L 42.825 43.277 Z M 66.975 27.527 Q 66.975 23.702 65.513 21.227 Q 64.05 18.752 61.425 17.515 Q 58.8 16.277 55.2 16.277 Q 51.45 16.277 48.638 17.702 Q 45.825 19.127 44.325 21.79 Q 42.825 24.452 42.825 28.277 L 42.825 34.577 L 66.975 33.377 L 66.975 27.527 Z M 75.825 17.852 Q 77.775 17.027 79.95 16.39 Q 82.125 15.752 84.638 15.377 Q 87.15 15.002 89.925 15.002 Q 93.75 15.002 96.3 16.09 Q 98.85 17.177 100.388 18.902 Q 101.925 20.627 102.6 22.577 Q 103.275 24.527 103.275 26.327 L 103.275 40.577 Q 103.275 43.952 102.413 46.465 Q 101.55 48.977 99.75 50.665 Q 97.95 52.352 95.025 53.215 Q 92.1 54.077 87.9 54.077 Q 87.075 54.077 85.425 54.002 Q 83.775 53.927 81.863 53.815 Q 79.95 53.702 78.225 53.59 Q 76.5 53.477 75.413 53.402 Q 74.325 53.327 74.4 53.327 L 74.4 0.752 L 75.825 0.752 L 75.825 17.852 Z M 75.825 51.977 Q 76.2 51.977 77.625 52.09 Q 79.05 52.202 80.963 52.352 Q 82.875 52.502 84.75 52.615 Q 86.625 52.727 87.9 52.727 Q 88.26 52.733 88.608 52.732 A 18.772 18.772 0 0 0 95.1 51.752 Q 97.875 50.702 99.338 48.977 Q 100.8 47.252 101.325 45.19 Q 101.85 43.127 101.85 41.102 L 101.85 26.627 Q 101.85 24.452 101.1 22.577 Q 100.35 20.702 98.85 19.277 Q 97.35 17.852 95.138 17.065 Q 92.925 16.277 90 16.277 Q 87.225 16.277 84.75 16.652 Q 82.275 17.027 80.063 17.74 Q 77.85 18.452 75.825 19.352 L 75.825 51.977 Z M 108.825 34.352 Q 108.825 32.552 109.313 30.565 Q 109.8 28.577 111.113 26.852 Q 112.425 25.127 114.788 24.04 Q 117.15 22.952 120.975 22.952 Q 123.75 22.952 126.375 23.552 Q 129 24.152 131.513 25.165 Q 134.025 26.177 136.275 27.302 Q 136.275 24.077 135.075 21.977 Q 133.875 19.877 131.85 18.677 Q 129.825 17.477 127.275 16.952 Q 124.725 16.427 122.025 16.427 L 122.1 15.077 Q 125.25 15.077 128.1 15.64 Q 130.95 16.202 133.088 17.59 Q 135.225 18.977 136.463 21.527 Q 137.7 24.077 137.7 28.052 L 137.7 53.252 Q 137.775 53.252 136.688 53.327 Q 135.6 53.402 133.875 53.515 Q 132.15 53.627 130.238 53.74 Q 128.325 53.852 126.675 53.927 Q 125.025 54.002 124.2 54.002 Q 120.15 54.002 117.225 53.177 Q 114.3 52.352 112.425 50.665 Q 110.55 48.977 109.688 46.465 Q 108.825 43.952 108.825 40.577 L 108.825 34.352 Z M 136.275 29.027 Q 133.65 27.602 131.138 26.59 Q 128.625 25.577 126.15 24.977 Q 123.675 24.377 120.9 24.377 Q 117.975 24.377 115.913 25.165 Q 113.85 25.952 112.613 27.34 Q 111.375 28.727 110.775 30.565 Q 110.175 32.402 110.175 34.502 L 110.175 41.027 Q 110.175 43.052 110.738 45.115 Q 111.3 47.177 112.763 48.902 Q 114.225 50.627 117 51.64 Q 119.775 52.652 124.2 52.652 Q 125.175 52.652 126.713 52.577 Q 128.25 52.502 129.938 52.39 Q 131.625 52.277 133.088 52.165 Q 134.55 52.052 135.45 51.977 Q 136.35 51.902 136.275 51.902 L 136.275 29.027 Z M 199.575 34.352 Q 199.575 32.552 200.063 30.565 Q 200.55 28.577 201.863 26.852 Q 203.175 25.127 205.538 24.04 Q 207.9 22.952 211.725 22.952 Q 214.5 22.952 217.125 23.552 Q 219.75 24.152 222.263 25.165 Q 224.775 26.177 227.025 27.302 Q 227.025 24.077 225.825 21.977 Q 224.625 19.877 222.6 18.677 Q 220.575 17.477 218.025 16.952 Q 215.475 16.427 212.775 16.427 L 212.85 15.077 Q 216 15.077 218.85 15.64 Q 221.7 16.202 223.838 17.59 Q 225.975 18.977 227.213 21.527 Q 228.45 24.077 228.45 28.052 L 228.45 53.252 Q 228.525 53.252 227.438 53.327 Q 226.35 53.402 224.625 53.515 Q 222.9 53.627 220.988 53.74 Q 219.075 53.852 217.425 53.927 Q 215.775 54.002 214.95 54.002 Q 210.9 54.002 207.975 53.177 Q 205.05 52.352 203.175 50.665 Q 201.3 48.977 200.438 46.465 Q 199.575 43.952 199.575 40.577 L 199.575 34.352 Z M 227.025 29.027 Q 224.4 27.602 221.888 26.59 Q 219.375 25.577 216.9 24.977 Q 214.425 24.377 211.65 24.377 Q 208.725 24.377 206.663 25.165 Q 204.6 25.952 203.363 27.34 Q 202.125 28.727 201.525 30.565 Q 200.925 32.402 200.925 34.502 L 200.925 41.027 Q 200.925 43.052 201.488 45.115 Q 202.05 47.177 203.513 48.902 Q 204.975 50.627 207.75 51.64 Q 210.525 52.652 214.95 52.652 Q 215.925 52.652 217.463 52.577 Q 219 52.502 220.688 52.39 Q 222.375 52.277 223.838 52.165 Q 225.3 52.052 226.2 51.977 Q 227.1 51.902 227.025 51.902 L 227.025 29.027 Z M 177.525 43.352 Q 177.525 46.052 178.2 47.89 Q 178.875 49.727 180.413 50.89 Q 181.95 52.052 184.425 52.952 L 183.9 54.227 Q 179.775 52.952 177.9 50.327 Q 176.025 47.702 176.025 43.352 L 176.025 0.752 L 177.525 0.752 L 177.525 15.752 L 189.3 15.752 L 188.625 17.102 L 177.525 17.102 L 177.525 43.352 Z M 192.75 15.677 L 194.1 15.677 L 194.1 53.252 L 192.75 53.252 L 192.75 15.677 Z M 193.5 0.002 Q 194.1 0.002 194.438 0.34 Q 194.775 0.677 194.775 1.277 Q 194.775 1.802 194.438 2.177 Q 194.1 2.552 193.5 2.552 Q 192.975 2.552 192.6 2.177 Q 192.225 1.802 192.225 1.277 Q 192.225 0.677 192.6 0.34 Q 192.975 0.002 193.5 0.002 Z"/></g></svg>