<svg width="284.925" height="52.8" viewBox="0 0 284.925 52.8" xmlns="http://www.w3.org/2000/svg"><g id="svgGroup" stroke-linecap="round" fill-rule="nonzero" font-size="9pt" stroke="#000000" stroke-width=".5" fill="#000000" style="stroke:#000000;stroke-width:.5;fill:#000000"><path d="M 49.65 0.675 L 55.95 0.675 L 55.95 32.625 Q 55.95 36.9 57.188 39.638 Q 58.425 42.375 60.45 43.95 Q 62.475 45.525 65.063 46.125 Q 67.65 46.725 70.35 46.725 Q 73.05 46.725 75.6 46.125 Q 78.15 45.525 80.175 43.95 Q 82.2 42.375 83.4 39.638 Q 84.6 36.9 84.6 32.625 L 84.6 0.675 L 90.9 0.675 L 90.9 34.2 Q 90.9 38.1 89.438 41.475 Q 87.975 44.85 85.275 47.363 Q 82.575 49.875 78.75 51.3 Q 74.925 52.725 70.275 52.725 A 27.571 27.571 0 0 1 60.083 51.025 A 16.658 16.658 0 0 1 54.975 47.887 Q 49.65 43.05 49.65 34.2 L 49.65 0.675 Z M 103.725 51.825 L 103.725 0.675 L 116.325 0.675 Q 120.45 0.675 123.863 1.388 Q 127.275 2.1 129.675 3.788 Q 132.075 5.475 133.35 8.25 Q 134.625 11.025 134.625 15.225 A 17.402 17.402 0 0 1 133.187 22.488 A 10.4 10.4 0 0 1 133.05 22.763 Q 131.55 25.65 129.375 27.413 Q 127.2 29.175 124.35 30 L 124.35 30.15 Q 124.65 30.45 125.288 31.238 Q 125.925 32.025 126.375 32.625 L 140.85 51.825 L 133.425 51.825 L 118.575 31.5 L 110.025 31.5 L 110.025 51.825 L 103.725 51.825 Z M 116.25 6.3 L 110.025 6.3 L 110.025 25.875 L 117.45 25.875 Q 120.375 25.875 122.4 25.125 Q 124.425 24.375 125.7 23.063 Q 126.975 21.75 127.575 20.025 Q 128.175 18.3 128.25 16.275 Q 128.25 13.125 127.462 11.138 Q 126.675 9.15 125.138 8.1 Q 123.6 7.05 121.35 6.675 Q 119.1 6.3 116.25 6.3 Z M 203.775 51.825 L 203.775 0.675 L 216.375 0.675 Q 220.5 0.675 223.913 1.388 Q 227.325 2.1 229.725 3.788 Q 232.125 5.475 233.4 8.25 Q 234.675 11.025 234.675 15.225 A 17.402 17.402 0 0 1 233.237 22.488 A 10.4 10.4 0 0 1 233.1 22.763 Q 231.6 25.65 229.425 27.413 Q 227.25 29.175 224.4 30 L 224.4 30.15 Q 224.7 30.45 225.337 31.238 Q 225.975 32.025 226.425 32.625 L 240.9 51.825 L 233.475 51.825 L 218.625 31.5 L 210.075 31.5 L 210.075 51.825 L 203.775 51.825 Z M 216.3 6.3 L 210.075 6.3 L 210.075 25.875 L 217.5 25.875 Q 220.425 25.875 222.45 25.125 Q 224.475 24.375 225.75 23.063 Q 227.025 21.75 227.625 20.025 Q 228.225 18.3 228.3 16.275 Q 228.3 13.125 227.513 11.138 Q 226.725 9.15 225.187 8.1 Q 223.65 7.05 221.4 6.675 Q 219.15 6.3 216.3 6.3 Z M 0 51.825 L 17.55 0.675 L 25.35 0.675 L 42.9 51.825 L 36.375 51.825 L 31.875 38.175 L 11.1 38.175 L 6.525 51.825 L 0 51.825 Z M 13.05 32.175 L 29.85 32.175 L 21.6 6.675 L 21.375 6.675 L 13.05 32.175 Z M 242.025 51.825 L 259.575 0.675 L 267.375 0.675 L 284.925 51.825 L 278.4 51.825 L 273.9 38.175 L 253.125 38.175 L 248.55 51.825 L 242.025 51.825 Z M 255.075 32.175 L 271.875 32.175 L 263.625 6.675 L 263.4 6.675 L 255.075 32.175 Z M 145.621 15.596 A 21.264 21.264 0 0 1 146.288 13.95 Q 148.575 8.925 152.138 5.85 Q 155.7 2.775 160.087 1.388 Q 164.475 0 168.675 0 Q 172.875 0 177.263 1.163 Q 181.65 2.325 185.212 5.288 Q 188.775 8.25 191.062 13.35 A 28.312 28.312 0 0 1 193.237 22.956 A 48.165 48.165 0 0 1 193.35 26.325 A 32.348 32.348 0 0 1 191.84 36.734 A 21.328 21.328 0 0 1 191.062 38.7 Q 188.775 43.725 185.212 46.875 Q 181.65 50.025 177.263 51.413 Q 172.875 52.8 168.675 52.8 Q 164.475 52.8 160.087 51.45 Q 155.7 50.1 152.138 47.025 Q 148.575 43.95 146.288 38.85 A 28.648 28.648 0 0 1 144.056 28.535 A 45.624 45.624 0 0 1 144 26.25 A 31.628 31.628 0 0 1 145.621 15.596 Z M 186.225 26.625 A 29.324 29.324 0 0 0 184.742 16.777 A 16.544 16.544 0 0 0 181.538 11.25 Q 176.85 6 168.975 6 Q 165 6 161.737 7.238 Q 158.475 8.475 156.112 10.95 Q 153.75 13.425 152.437 17.138 Q 151.125 20.85 151.125 25.875 A 29.446 29.446 0 0 0 152.692 36.003 A 17.133 17.133 0 0 0 155.812 41.4 Q 160.5 46.8 168.375 46.8 Q 172.275 46.8 175.575 45.563 Q 178.875 44.325 181.237 41.775 Q 183.6 39.225 184.912 35.475 Q 186.225 31.725 186.225 26.625 Z"/></g></svg>