<svg width="65.934" height="53.94" viewBox="0 0 65.934 53.94" xmlns="http://www.w3.org/2000/svg"><g id="svgGroup" stroke-linecap="round" fill-rule="nonzero" font-size="9pt" stroke="#000000" stroke-width=".5" fill="#000000" style="stroke:#000000;stroke-width:.5;fill:#000000"><path d="M 24.759 3.758 Q 23.034 2.858 21.309 2.333 Q 19.584 1.808 17.971 1.583 Q 16.359 1.358 14.859 1.358 A 25.215 25.215 0 0 0 14.785 1.358 A 14.624 14.624 0 0 0 7.209 3.121 Q 4.284 4.883 2.896 8.108 Q 1.509 11.333 1.509 15.908 L 1.509 39.158 Q 1.509 43.508 3.159 46.471 Q 4.809 49.433 7.921 50.971 Q 11.034 52.508 15.459 52.508 Q 18.609 52.508 21.159 51.646 Q 23.709 50.783 25.584 49.133 Q 27.459 47.483 28.471 45.046 Q 29.484 42.608 29.484 39.458 L 29.484 32.108 L 16.359 32.108 L 15.759 30.683 L 30.909 30.683 L 30.909 53.183 L 29.484 53.183 L 29.484 46.358 Q 28.359 48.608 26.259 50.333 Q 24.159 52.058 21.346 52.996 Q 18.534 53.933 15.234 53.933 Q 10.434 53.933 7.021 52.246 Q 3.609 50.558 1.809 47.221 Q 0.009 43.883 0.009 39.008 L 0.009 15.383 Q 0.009 10.583 1.696 7.133 Q 3.384 3.683 6.646 1.846 Q 9.909 0.008 14.634 0.008 Q 16.584 0.008 18.421 0.271 Q 20.259 0.533 21.984 1.096 Q 23.709 1.658 25.284 2.483 L 24.759 3.758 Z M 37.359 53.183 L 64.209 2.183 L 36.534 2.183 L 36.534 0.683 L 65.934 0.683 L 65.934 2.183 L 38.859 53.183 L 37.359 53.183 Z"/></g></svg>